<svg width="24" height="24" viewBox="0 0 24 24" fill="none" xmlns="http://www.w3.org/2000/svg">
<g id="emojione:flag-for-australia" clip-path="url(#clip0_0_281)">
<path id="Vector" d="M12 0.75V4.5H4.5V12H0.75C0.75 18.225 5.775 23.25 12 23.25C18.225 23.25 23.25 18.225 23.25 12C23.25 5.775 18.225 0.75 12 0.75Z" fill="#0052B4"/>
<path id="Vector_2" d="M12 0.75C10.2375 0.75 8.5875 1.1625 7.0875 1.875V4.125H4.125V7.0875H1.875C1.1625 8.5875 0.75 10.2375 0.75 12H5.25V6.375L9.75 12H12V9.1875L8.85 5.25H12V0.75Z" fill="white"/>
<g id="Group">
<path id="Vector_3" d="M5.77539 5.25L11.2504 12H12.0004V10.1625L8.02539 5.25H5.77539Z" fill="#ED4C5C"/>
<path id="Vector_4" d="M12 1.875H7.0875C4.8375 2.9625 2.9625 4.8375 1.875 7.0875V12H4.125V4.125H12V1.875Z" fill="#ED4C5C"/>
</g>
<path id="Vector_5" d="M3 13.3875L3.825 12.375L3.5625 13.6875L4.875 13.725L3.7125 14.325L4.5 15.375L3.3375 14.85L3 16.125L2.6625 14.85L1.5 15.375L2.2875 14.325L1.125 13.725L2.4375 13.6875L2.175 12.375L3 13.3875ZM19.5 7.575L20.175 6.75L19.95 7.8L21 7.8375L20.0625 8.325L20.7 9.15L19.7625 8.7L19.5 9.75L19.2375 8.7L18.3 9.15L18.9375 8.325L18 7.8375L19.05 7.8L18.825 6.75L19.5 7.575ZM19.5 15.075L20.175 14.25L19.95 15.3L21 15.3375L20.0625 15.825L20.7 16.65L19.7625 16.2L19.5 17.25L19.2375 16.2L18.3 16.65L18.9375 15.825L18 15.3375L19.05 15.3L18.825 14.25L19.5 15.075ZM15.75 9.825L16.425 9L16.2 10.05L17.25 10.0875L16.3125 10.575L16.95 11.4L16.0125 10.95L15.75 12L15.4875 10.95L14.55 11.4L15.1875 10.575L14.25 10.0875L15.3 10.05L15.075 9L15.75 9.825Z" fill="white"/>
</g>
<defs>
<clipPath id="clip0_0_281">
<rect width="24" height="24" fill="white"/>
</clipPath>
</defs>
</svg>
