<svg width="24" height="25" viewBox="0 0 24 25" fill="none" xmlns="http://www.w3.org/2000/svg">
<g id="brandico:facebook-rect">
<path id="Vector" d="M5.65188 2.23334C3.6289 2.23334 2 3.86223 2 5.88521V18.5814C2 20.6044 3.6289 22.2333 5.65188 22.2333H12.5331V14.4146H10.4656V11.5996H12.5331V9.19458C12.5331 7.30509 13.7547 5.57021 16.5688 5.57021C17.7081 5.57021 18.5506 5.67959 18.5506 5.67959L18.4844 8.30835C18.4844 8.30835 17.6251 8.30023 16.6875 8.30023C15.6727 8.30023 15.51 8.76778 15.51 9.54398V11.5996H18.565L18.4319 14.4146H15.51V22.2333H18.3481C20.3711 22.2333 22 20.6044 22 18.5815V5.88523C22 3.86225 20.3711 2.23336 18.3481 2.23336H5.65186L5.65188 2.23334Z" fill="#2997F9"/>
</g>
</svg>
