<svg width="24" height="25" viewBox="0 0 24 25" fill="none" xmlns="http://www.w3.org/2000/svg">
<g id="ri:instagram-fill">
<path id="Vector" d="M12 2.48334C14.717 2.48334 15.056 2.49334 16.122 2.54334C17.187 2.59334 17.912 2.76034 18.55 3.00834C19.21 3.26234 19.766 3.60634 20.322 4.16134C20.8305 4.66123 21.224 5.26593 21.475 5.93334C21.722 6.57034 21.89 7.29634 21.94 8.36134C21.987 9.42734 22 9.76634 22 12.4833C22 15.2003 21.99 15.5393 21.94 16.6053C21.89 17.6703 21.722 18.3953 21.475 19.0333C21.2247 19.7011 20.8311 20.306 20.322 20.8053C19.822 21.3137 19.2173 21.7071 18.55 21.9583C17.913 22.2053 17.187 22.3733 16.122 22.4233C15.056 22.4703 14.717 22.4833 12 22.4833C9.283 22.4833 8.944 22.4733 7.878 22.4233C6.813 22.3733 6.088 22.2053 5.45 21.9583C4.78233 21.7078 4.17753 21.3143 3.678 20.8053C3.16941 20.3055 2.77593 19.7008 2.525 19.0333C2.277 18.3963 2.11 17.6703 2.06 16.6053C2.013 15.5393 2 15.2003 2 12.4833C2 9.76634 2.01 9.42734 2.06 8.36134C2.11 7.29534 2.277 6.57134 2.525 5.93334C2.77524 5.26552 3.1688 4.66066 3.678 4.16134C4.17767 3.65257 4.78243 3.25907 5.45 3.00834C6.088 2.76034 6.812 2.59334 7.878 2.54334C8.944 2.49634 9.283 2.48334 12 2.48334ZM12 7.48334C10.6739 7.48334 9.40215 8.01012 8.46447 8.9478C7.52678 9.88549 7 11.1573 7 12.4833C7 13.8094 7.52678 15.0812 8.46447 16.0189C9.40215 16.9566 10.6739 17.4833 12 17.4833C13.3261 17.4833 14.5979 16.9566 15.5355 16.0189C16.4732 15.0812 17 13.8094 17 12.4833C17 11.1573 16.4732 9.88549 15.5355 8.9478C14.5979 8.01012 13.3261 7.48334 12 7.48334ZM18.5 7.23334C18.5 6.90182 18.3683 6.58387 18.1339 6.34945C17.8995 6.11503 17.5815 5.98334 17.25 5.98334C16.9185 5.98334 16.6005 6.11503 16.3661 6.34945C16.1317 6.58387 16 6.90182 16 7.23334C16 7.56486 16.1317 7.8828 16.3661 8.11722C16.6005 8.35164 16.9185 8.48334 17.25 8.48334C17.5815 8.48334 17.8995 8.35164 18.1339 8.11722C18.3683 7.8828 18.5 7.56486 18.5 7.23334ZM12 9.48334C12.7956 9.48334 13.5587 9.79941 14.1213 10.362C14.6839 10.9246 15 11.6877 15 12.4833C15 13.279 14.6839 14.042 14.1213 14.6047C13.5587 15.1673 12.7956 15.4833 12 15.4833C11.2044 15.4833 10.4413 15.1673 9.87868 14.6047C9.31607 14.042 9 13.279 9 12.4833C9 11.6877 9.31607 10.9246 9.87868 10.362C10.4413 9.79941 11.2044 9.48334 12 9.48334Z" fill="#2997F9"/>
</g>
</svg>
