<svg width="24" height="25" viewBox="0 0 24 25" fill="none" xmlns="http://www.w3.org/2000/svg">
<g id="mdi:linkedin">
<path id="Vector" d="M19.7778 2.23334C20.3671 2.23334 20.9324 2.46746 21.3491 2.88421C21.7659 3.30096 22 3.86619 22 4.45556V20.0111C22 20.6005 21.7659 21.1657 21.3491 21.5825C20.9324 21.9992 20.3671 22.2333 19.7778 22.2333H4.22222C3.63285 22.2333 3.06762 21.9992 2.65087 21.5825C2.23413 21.1657 2 20.6005 2 20.0111V4.45556C2 3.86619 2.23413 3.30096 2.65087 2.88421C3.06762 2.46746 3.63285 2.23334 4.22222 2.23334H19.7778ZM19.2222 19.4556V13.5667C19.2222 12.606 18.8406 11.6847 18.1613 11.0054C17.482 10.3261 16.5607 9.94445 15.6 9.94445C14.6556 9.94445 13.5556 10.5222 13.0222 11.3889V10.1556H9.92222V19.4556H13.0222V13.9778C13.0222 13.1222 13.7111 12.4222 14.5667 12.4222C14.9792 12.4222 15.3749 12.5861 15.6666 12.8778C15.9583 13.1696 16.1222 13.5652 16.1222 13.9778V19.4556H19.2222ZM6.31111 8.41112C6.80618 8.41112 7.28098 8.21445 7.63104 7.86438C7.98111 7.51431 8.17778 7.03952 8.17778 6.54445C8.17778 5.51112 7.34444 4.66667 6.31111 4.66667C5.81309 4.66667 5.33547 4.86451 4.98332 5.21666C4.63117 5.56881 4.43333 6.04643 4.43333 6.54445C4.43333 7.57778 5.27778 8.41112 6.31111 8.41112ZM7.85556 19.4556V10.1556H4.77778V19.4556H7.85556Z" fill="#2997F9"/>
</g>
</svg>
