<svg width="24" height="25" viewBox="0 0 24 25" fill="none" xmlns="http://www.w3.org/2000/svg">
<g id="ic:baseline-telegram">
<path id="Vector" d="M12 1.48334C5.928 1.48334 1 6.41134 1 12.4833C1 18.5553 5.928 23.4833 12 23.4833C18.072 23.4833 23 18.5553 23 12.4833C23 6.41134 18.072 1.48334 12 1.48334ZM17.104 8.96334C16.939 10.7013 16.224 14.9253 15.861 16.8723C15.707 17.6973 15.399 17.9723 15.113 18.0053C14.475 18.0603 13.991 17.5873 13.375 17.1803C12.407 16.5423 11.857 16.1463 10.922 15.5303C9.833 14.8153 10.537 14.4193 11.164 13.7813C11.329 13.6163 14.145 11.0533 14.2 10.8223C14.2076 10.7873 14.2066 10.751 14.197 10.7165C14.1875 10.682 14.1696 10.6504 14.145 10.6243C14.079 10.5693 13.991 10.5913 13.914 10.6023C13.815 10.6243 12.275 11.6473 9.272 13.6713C8.832 13.9683 8.436 14.1223 8.084 14.1113C7.688 14.1003 6.94 13.8913 6.379 13.7043C5.686 13.4843 5.147 13.3633 5.191 12.9783C5.213 12.7803 5.488 12.5823 6.005 12.3733C9.217 10.9763 11.351 10.0523 12.418 9.61234C15.476 8.33634 16.103 8.11634 16.521 8.11634C16.609 8.11634 16.818 8.13834 16.95 8.24834C17.06 8.33634 17.093 8.45734 17.104 8.54534C17.093 8.61134 17.115 8.80934 17.104 8.96334Z" fill="#2997F9"/>
</g>
</svg>
