<svg width="25" height="25" viewBox="0 0 25 25" fill="none" xmlns="http://www.w3.org/2000/svg">
<g id="Twitter">
<path id="Subtract" fill-rule="evenodd" clip-rule="evenodd" d="M6.97528 2.48334C4.76307 2.48334 2.96973 4.27668 2.96973 6.48889V18.5055C2.96973 20.7177 4.76307 22.5111 6.97528 22.5111H18.9919C21.2041 22.5111 22.9975 20.7178 22.9975 18.5055V6.48889C22.9975 4.27668 21.2041 2.48334 18.9919 2.48334H6.97528ZM19.2035 6.49115H17.0539L13.4696 10.538L10.4087 6.49115H5.97388L11.2545 13.4073L6.25427 19.1552H8.40391L12.2826 14.7251L15.6706 19.1552H19.998L14.4837 11.8652L19.2035 6.49115ZM17.4932 17.8935H16.3015L8.50205 7.70615H9.78249L17.4932 17.8935Z" fill="#2997F9"/>
</g>
</svg>
