<svg width="22" height="22" viewBox="0 0 22 22" fill="none" xmlns="http://www.w3.org/2000/svg">
<g id="Frame 1000005340">
<path id="Vector" d="M11 21.2333C4.92265 21.2333 0 16.5271 0 10.7333C0 4.93955 4.92265 0.233337 11 0.233337H19.2449C20.7643 0.233337 22 1.41978 22 2.86328V10.7531C22 16.5271 17.0773 21.2333 11 21.2333Z" fill="#2997F9"/>
<path id="Vector_2" d="M10.9998 15.9932C13.0459 15.9932 14.8286 14.9254 15.7604 13.3633C14.8083 11.8011 13.0256 10.7531 10.9998 10.7531C8.95381 10.7531 7.17112 11.8209 6.23926 13.3831C7.19138 14.9452 8.97406 15.9932 10.9998 15.9932ZM13.1472 7.54972C13.1472 8.69661 12.1748 9.62599 10.9796 9.62599C9.78438 9.62599 8.812 8.69661 8.812 7.54972C8.812 6.40283 9.78438 5.47345 10.9796 5.47345C12.1748 5.47345 13.1472 6.40283 13.1472 7.54972Z" fill="black"/>
</g>
</svg>
