<svg width="24" height="25" viewBox="0 0 24 25" fill="none" xmlns="http://www.w3.org/2000/svg">
<g id="ph:youtube-logo-fill">
<path id="Vector" d="M23.4785 5.43183C23.2588 4.05742 21.9937 2.85634 20.5936 2.697C14.8798 2.0786 9.11537 2.07878 3.40169 2.69756C2.00658 2.85634 0.741483 4.0572 0.520685 5.43683C-0.173824 9.9433 -0.17356 14.5285 0.521467 19.0349C0.741372 20.4093 2.00658 21.6103 3.40638 21.7694C6.26033 22.0786 9.1291 22.2335 12 22.2333C14.8709 22.2335 17.7396 22.0786 20.5936 21.7694L20.5981 21.769C21.9934 21.6104 23.2587 20.4094 23.4794 19.0297C24.1738 14.5233 24.1735 9.93815 23.4785 5.43183ZM16.0735 12.9723L10.7073 16.5255C10.5726 16.6147 10.4161 16.6659 10.2544 16.6736C10.0927 16.6814 9.93193 16.6454 9.78921 16.5695C9.6465 16.4937 9.52719 16.3808 9.444 16.2429C9.36081 16.105 9.31687 15.9472 9.31685 15.7864V8.6801C9.31686 8.51931 9.3608 8.36154 9.44399 8.22362C9.52718 8.08569 9.64651 7.97277 9.78924 7.89691C9.93197 7.82105 10.0928 7.78509 10.2545 7.79286C10.4162 7.80063 10.5727 7.85184 10.7074 7.94104L16.0736 11.4942C16.1961 11.5753 16.2965 11.6852 16.366 11.8142C16.4355 11.9431 16.4718 12.087 16.4718 12.2333C16.4718 12.3795 16.4355 12.5235 16.366 12.6524C16.2965 12.7813 16.1961 12.8912 16.0736 12.9723H16.0735Z" fill="#2997F9"/>
</g>
</svg>
